<svg width="247" height="207" viewBox="0 0 247 207" fill="none" xmlns="http://www.w3.org/2000/svg">
<rect x="247" width="5.37662" height="5.38909" rx="2.68831" transform="rotate(90 247 0)" fill="#0084B9"/>
<rect x="227.24" width="5.37662" height="5.38909" rx="2.68831" transform="rotate(90 227.24 0)" fill="#0084B9"/>
<rect x="207.48" width="5.37662" height="5.38909" rx="2.68831" transform="rotate(90 207.48 0)" fill="#0084B9"/>
<rect x="187.72" width="5.37662" height="5.38909" rx="2.68831" transform="rotate(90 187.72 0)" fill="#0084B9"/>
<rect x="167.96" width="5.37662" height="5.38909" rx="2.68831" transform="rotate(90 167.96 0)" fill="#0084B9"/>
<rect x="148.2" width="5.37662" height="5.38909" rx="2.68831" transform="rotate(90 148.2 0)" fill="#0084B9"/>
<rect x="128.44" width="5.37662" height="5.38909" rx="2.68831" transform="rotate(90 128.44 0)" fill="#0084B9"/>
<rect x="108.68" width="5.37662" height="5.38908" rx="2.68831" transform="rotate(90 108.68 0)" fill="#0084B9"/>
<rect x="88.9199" width="5.37662" height="5.38908" rx="2.68831" transform="rotate(90 88.9199 0)" fill="#0084B9"/>
<rect x="69.1602" width="5.37662" height="5.3891" rx="2.68831" transform="rotate(90 69.1602 0)" fill="#0084B9"/>
<rect x="49.4004" width="5.37662" height="5.38908" rx="2.68831" transform="rotate(90 49.4004 0)" fill="#0084B9"/>
<rect x="29.6396" width="5.37662" height="5.38908" rx="2.68831" transform="rotate(90 29.6396 0)" fill="#0084B9"/>
<rect x="9.87988" width="5.37662" height="5.3891" rx="2.68831" transform="rotate(90 9.87988 0)" fill="#0084B9"/>
<rect x="247" y="19.7139" width="5.37663" height="5.38909" rx="2.68831" transform="rotate(90 247 19.7139)" fill="#0084B9"/>
<rect x="227.24" y="19.7139" width="5.37663" height="5.38909" rx="2.68831" transform="rotate(90 227.24 19.7139)" fill="#0084B9"/>
<rect x="207.48" y="19.7139" width="5.37663" height="5.38909" rx="2.68831" transform="rotate(90 207.48 19.7139)" fill="#0084B9"/>
<rect x="187.72" y="19.7139" width="5.37663" height="5.38909" rx="2.68831" transform="rotate(90 187.72 19.7139)" fill="#0084B9"/>
<rect x="167.96" y="19.7139" width="5.37663" height="5.38909" rx="2.68831" transform="rotate(90 167.96 19.7139)" fill="#0084B9"/>
<rect x="148.2" y="19.7139" width="5.37663" height="5.38909" rx="2.68831" transform="rotate(90 148.2 19.7139)" fill="#0084B9"/>
<rect x="128.44" y="19.7139" width="5.37663" height="5.38909" rx="2.68831" transform="rotate(90 128.44 19.7139)" fill="#0084B9"/>
<rect x="108.68" y="19.7139" width="5.37663" height="5.38908" rx="2.68831" transform="rotate(90 108.68 19.7139)" fill="#0084B9"/>
<rect x="88.9199" y="19.7139" width="5.37663" height="5.38908" rx="2.68831" transform="rotate(90 88.9199 19.7139)" fill="#0084B9"/>
<rect x="69.1602" y="19.7139" width="5.37663" height="5.3891" rx="2.68831" transform="rotate(90 69.1602 19.7139)" fill="#0084B9"/>
<rect x="49.4004" y="19.7139" width="5.37663" height="5.38908" rx="2.68831" transform="rotate(90 49.4004 19.7139)" fill="#0084B9"/>
<rect x="29.6396" y="19.7139" width="5.37663" height="5.38908" rx="2.68831" transform="rotate(90 29.6396 19.7139)" fill="#0084B9"/>
<rect x="9.87988" y="19.7139" width="5.37663" height="5.3891" rx="2.68831" transform="rotate(90 9.87988 19.7139)" fill="#0084B9"/>
<rect x="247" y="39.4287" width="5.37663" height="5.38909" rx="2.68831" transform="rotate(90 247 39.4287)" fill="#0084B9"/>
<rect x="227.24" y="39.4287" width="5.37663" height="5.38909" rx="2.68831" transform="rotate(90 227.24 39.4287)" fill="#0084B9"/>
<rect x="207.48" y="39.4287" width="5.37663" height="5.38909" rx="2.68831" transform="rotate(90 207.48 39.4287)" fill="#0084B9"/>
<rect x="187.72" y="39.4287" width="5.37663" height="5.38909" rx="2.68831" transform="rotate(90 187.72 39.4287)" fill="#0084B9"/>
<rect x="167.96" y="39.4287" width="5.37663" height="5.38909" rx="2.68831" transform="rotate(90 167.96 39.4287)" fill="#0084B9"/>
<rect x="148.2" y="39.4287" width="5.37663" height="5.38909" rx="2.68831" transform="rotate(90 148.2 39.4287)" fill="#0084B9"/>
<rect x="128.44" y="39.4287" width="5.37663" height="5.38909" rx="2.68831" transform="rotate(90 128.44 39.4287)" fill="#0084B9"/>
<rect x="108.68" y="39.4287" width="5.37663" height="5.38908" rx="2.68831" transform="rotate(90 108.68 39.4287)" fill="#0084B9"/>
<rect x="88.9199" y="39.4287" width="5.37663" height="5.38908" rx="2.68831" transform="rotate(90 88.9199 39.4287)" fill="#0084B9"/>
<rect x="69.1602" y="39.4287" width="5.37663" height="5.3891" rx="2.68831" transform="rotate(90 69.1602 39.4287)" fill="#0084B9"/>
<rect x="49.4004" y="39.4287" width="5.37663" height="5.38908" rx="2.68831" transform="rotate(90 49.4004 39.4287)" fill="#0084B9"/>
<rect x="29.6396" y="39.4287" width="5.37663" height="5.38908" rx="2.68831" transform="rotate(90 29.6396 39.4287)" fill="#0084B9"/>
<rect x="9.87988" y="39.4287" width="5.37663" height="5.3891" rx="2.68831" transform="rotate(90 9.87988 39.4287)" fill="#0084B9"/>
<rect x="247" y="59.1426" width="5.37662" height="5.38909" rx="2.68831" transform="rotate(90 247 59.1426)" fill="#0084B9"/>
<rect x="227.24" y="59.1426" width="5.37662" height="5.38909" rx="2.68831" transform="rotate(90 227.24 59.1426)" fill="#0084B9"/>
<rect x="207.48" y="59.1426" width="5.37662" height="5.38909" rx="2.68831" transform="rotate(90 207.48 59.1426)" fill="#0084B9"/>
<rect x="187.72" y="59.1426" width="5.37662" height="5.38909" rx="2.68831" transform="rotate(90 187.72 59.1426)" fill="#0084B9"/>
<rect x="167.96" y="59.1426" width="5.37662" height="5.38909" rx="2.68831" transform="rotate(90 167.96 59.1426)" fill="#0084B9"/>
<rect x="148.2" y="59.1426" width="5.37662" height="5.38909" rx="2.68831" transform="rotate(90 148.2 59.1426)" fill="#0084B9"/>
<rect x="128.44" y="59.1426" width="5.37662" height="5.38909" rx="2.68831" transform="rotate(90 128.44 59.1426)" fill="#0084B9"/>
<rect x="108.68" y="59.1426" width="5.37662" height="5.38908" rx="2.68831" transform="rotate(90 108.68 59.1426)" fill="#0084B9"/>
<rect x="88.9199" y="59.1426" width="5.37662" height="5.38908" rx="2.68831" transform="rotate(90 88.9199 59.1426)" fill="#0084B9"/>
<rect x="69.1602" y="59.1426" width="5.37662" height="5.3891" rx="2.68831" transform="rotate(90 69.1602 59.1426)" fill="#0084B9"/>
<rect x="49.4004" y="59.1426" width="5.37662" height="5.38908" rx="2.68831" transform="rotate(90 49.4004 59.1426)" fill="#0084B9"/>
<rect x="29.6396" y="59.1426" width="5.37662" height="5.38908" rx="2.68831" transform="rotate(90 29.6396 59.1426)" fill="#0084B9"/>
<rect x="9.87988" y="59.1426" width="5.37662" height="5.3891" rx="2.68831" transform="rotate(90 9.87988 59.1426)" fill="#0084B9"/>
<rect x="247" y="78.8574" width="5.37663" height="5.38909" rx="2.68831" transform="rotate(90 247 78.8574)" fill="#0084B9"/>
<rect x="227.24" y="78.8574" width="5.37663" height="5.38909" rx="2.68831" transform="rotate(90 227.24 78.8574)" fill="#0084B9"/>
<rect x="207.48" y="78.8574" width="5.37663" height="5.38909" rx="2.68831" transform="rotate(90 207.48 78.8574)" fill="#0084B9"/>
<rect x="187.72" y="78.8574" width="5.37663" height="5.38909" rx="2.68831" transform="rotate(90 187.72 78.8574)" fill="#0084B9"/>
<rect x="167.96" y="78.8574" width="5.37663" height="5.38909" rx="2.68831" transform="rotate(90 167.96 78.8574)" fill="#0084B9"/>
<rect x="148.2" y="78.8574" width="5.37663" height="5.38909" rx="2.68831" transform="rotate(90 148.2 78.8574)" fill="#0084B9"/>
<rect x="128.44" y="78.8574" width="5.37663" height="5.38909" rx="2.68831" transform="rotate(90 128.44 78.8574)" fill="#0084B9"/>
<rect x="108.68" y="78.8574" width="5.37663" height="5.38908" rx="2.68831" transform="rotate(90 108.68 78.8574)" fill="#0084B9"/>
<rect x="88.9199" y="78.8574" width="5.37663" height="5.38908" rx="2.68831" transform="rotate(90 88.9199 78.8574)" fill="#0084B9"/>
<rect x="69.1602" y="78.8574" width="5.37663" height="5.3891" rx="2.68831" transform="rotate(90 69.1602 78.8574)" fill="#0084B9"/>
<rect x="49.4004" y="78.8574" width="5.37663" height="5.38908" rx="2.68831" transform="rotate(90 49.4004 78.8574)" fill="#0084B9"/>
<rect x="29.6396" y="78.8574" width="5.37663" height="5.38908" rx="2.68831" transform="rotate(90 29.6396 78.8574)" fill="#0084B9"/>
<rect x="9.87988" y="78.8574" width="5.37663" height="5.3891" rx="2.68831" transform="rotate(90 9.87988 78.8574)" fill="#0084B9"/>
<rect x="247" y="98.5713" width="5.37663" height="5.38909" rx="2.68831" transform="rotate(90 247 98.5713)" fill="#0084B9"/>
<rect x="227.24" y="98.5713" width="5.37663" height="5.38909" rx="2.68831" transform="rotate(90 227.24 98.5713)" fill="#0084B9"/>
<rect x="207.48" y="98.5713" width="5.37663" height="5.38909" rx="2.68831" transform="rotate(90 207.48 98.5713)" fill="#0084B9"/>
<rect x="187.72" y="98.5713" width="5.37663" height="5.38909" rx="2.68831" transform="rotate(90 187.72 98.5713)" fill="#0084B9"/>
<rect x="167.96" y="98.5713" width="5.37663" height="5.38909" rx="2.68831" transform="rotate(90 167.96 98.5713)" fill="#0084B9"/>
<rect x="148.2" y="98.5713" width="5.37663" height="5.38909" rx="2.68831" transform="rotate(90 148.2 98.5713)" fill="#0084B9"/>
<rect x="128.44" y="98.5713" width="5.37663" height="5.38909" rx="2.68831" transform="rotate(90 128.44 98.5713)" fill="#0084B9"/>
<rect x="108.68" y="98.5713" width="5.37663" height="5.38908" rx="2.68831" transform="rotate(90 108.68 98.5713)" fill="#0084B9"/>
<rect x="88.9199" y="98.5713" width="5.37663" height="5.38908" rx="2.68831" transform="rotate(90 88.9199 98.5713)" fill="#0084B9"/>
<rect x="69.1602" y="98.5713" width="5.37663" height="5.3891" rx="2.68831" transform="rotate(90 69.1602 98.5713)" fill="#0084B9"/>
<rect x="49.4004" y="98.5713" width="5.37663" height="5.38908" rx="2.68831" transform="rotate(90 49.4004 98.5713)" fill="#0084B9"/>
<rect x="29.6396" y="98.5713" width="5.37663" height="5.38908" rx="2.68831" transform="rotate(90 29.6396 98.5713)" fill="#0084B9"/>
<rect x="9.87988" y="98.5713" width="5.37663" height="5.3891" rx="2.68831" transform="rotate(90 9.87988 98.5713)" fill="#0084B9"/>
<rect x="247" y="118.286" width="5.37663" height="5.38909" rx="2.68831" transform="rotate(90 247 118.286)" fill="#0084B9"/>
<rect x="227.24" y="118.286" width="5.37663" height="5.38909" rx="2.68831" transform="rotate(90 227.24 118.286)" fill="#0084B9"/>
<rect x="207.48" y="118.286" width="5.37663" height="5.38909" rx="2.68831" transform="rotate(90 207.48 118.286)" fill="#0084B9"/>
<rect x="187.72" y="118.286" width="5.37663" height="5.38909" rx="2.68831" transform="rotate(90 187.72 118.286)" fill="#0084B9"/>
<rect x="167.96" y="118.286" width="5.37663" height="5.38909" rx="2.68831" transform="rotate(90 167.96 118.286)" fill="#0084B9"/>
<rect x="148.2" y="118.286" width="5.37663" height="5.38909" rx="2.68831" transform="rotate(90 148.2 118.286)" fill="#0084B9"/>
<rect x="128.44" y="118.286" width="5.37663" height="5.38909" rx="2.68831" transform="rotate(90 128.44 118.286)" fill="#0084B9"/>
<rect x="108.68" y="118.286" width="5.37663" height="5.38908" rx="2.68831" transform="rotate(90 108.68 118.286)" fill="#0084B9"/>
<rect x="88.9199" y="118.286" width="5.37663" height="5.38908" rx="2.68831" transform="rotate(90 88.9199 118.286)" fill="#0084B9"/>
<rect x="69.1602" y="118.286" width="5.37663" height="5.3891" rx="2.68831" transform="rotate(90 69.1602 118.286)" fill="#0084B9"/>
<rect x="49.4004" y="118.286" width="5.37663" height="5.38908" rx="2.68831" transform="rotate(90 49.4004 118.286)" fill="#0084B9"/>
<rect x="29.6396" y="118.286" width="5.37663" height="5.38908" rx="2.68831" transform="rotate(90 29.6396 118.286)" fill="#0084B9"/>
<rect x="9.87988" y="118.286" width="5.37663" height="5.3891" rx="2.68831" transform="rotate(90 9.87988 118.286)" fill="#0084B9"/>
<rect x="247" y="138" width="5.37662" height="5.38909" rx="2.68831" transform="rotate(90 247 138)" fill="#0084B9"/>
<rect x="227.24" y="138" width="5.37662" height="5.38909" rx="2.68831" transform="rotate(90 227.24 138)" fill="#0084B9"/>
<rect x="207.48" y="138" width="5.37662" height="5.38909" rx="2.68831" transform="rotate(90 207.48 138)" fill="#0084B9"/>
<rect x="187.72" y="138" width="5.37662" height="5.38909" rx="2.68831" transform="rotate(90 187.72 138)" fill="#0084B9"/>
<rect x="167.96" y="138" width="5.37662" height="5.38909" rx="2.68831" transform="rotate(90 167.96 138)" fill="#0084B9"/>
<rect x="148.2" y="138" width="5.37662" height="5.38909" rx="2.68831" transform="rotate(90 148.2 138)" fill="#0084B9"/>
<rect x="128.44" y="138" width="5.37662" height="5.38909" rx="2.68831" transform="rotate(90 128.44 138)" fill="#0084B9"/>
<rect x="108.68" y="138" width="5.37662" height="5.38908" rx="2.68831" transform="rotate(90 108.68 138)" fill="#0084B9"/>
<rect x="88.9199" y="138" width="5.37662" height="5.38908" rx="2.68831" transform="rotate(90 88.9199 138)" fill="#0084B9"/>
<rect x="69.1602" y="138" width="5.37662" height="5.3891" rx="2.68831" transform="rotate(90 69.1602 138)" fill="#0084B9"/>
<rect x="49.4004" y="138" width="5.37662" height="5.38908" rx="2.68831" transform="rotate(90 49.4004 138)" fill="#0084B9"/>
<rect x="29.6396" y="138" width="5.37662" height="5.38908" rx="2.68831" transform="rotate(90 29.6396 138)" fill="#0084B9"/>
<rect x="9.87988" y="138" width="5.37662" height="5.3891" rx="2.68831" transform="rotate(90 9.87988 138)" fill="#0084B9"/>
<rect x="247" y="157.714" width="5.37663" height="5.38909" rx="2.68832" transform="rotate(90 247 157.714)" fill="#0084B9"/>
<rect x="227.24" y="157.714" width="5.37663" height="5.38909" rx="2.68832" transform="rotate(90 227.24 157.714)" fill="#0084B9"/>
<rect x="207.48" y="157.714" width="5.37663" height="5.38909" rx="2.68832" transform="rotate(90 207.48 157.714)" fill="#0084B9"/>
<rect x="187.72" y="157.714" width="5.37663" height="5.38909" rx="2.68832" transform="rotate(90 187.72 157.714)" fill="#0084B9"/>
<rect x="167.96" y="157.714" width="5.37663" height="5.38909" rx="2.68832" transform="rotate(90 167.96 157.714)" fill="#0084B9"/>
<rect x="148.2" y="157.714" width="5.37663" height="5.38909" rx="2.68832" transform="rotate(90 148.2 157.714)" fill="#0084B9"/>
<rect x="128.44" y="157.714" width="5.37663" height="5.38909" rx="2.68832" transform="rotate(90 128.44 157.714)" fill="#0084B9"/>
<rect x="108.68" y="157.714" width="5.37663" height="5.38908" rx="2.68832" transform="rotate(90 108.68 157.714)" fill="#0084B9"/>
<rect x="88.9199" y="157.714" width="5.37663" height="5.38908" rx="2.68832" transform="rotate(90 88.9199 157.714)" fill="#0084B9"/>
<rect x="69.1602" y="157.714" width="5.37663" height="5.3891" rx="2.68832" transform="rotate(90 69.1602 157.714)" fill="#0084B9"/>
<rect x="49.4004" y="157.714" width="5.37663" height="5.38908" rx="2.68832" transform="rotate(90 49.4004 157.714)" fill="#0084B9"/>
<rect x="29.6396" y="157.714" width="5.37663" height="5.38908" rx="2.68832" transform="rotate(90 29.6396 157.714)" fill="#0084B9"/>
<rect x="9.87988" y="157.714" width="5.37663" height="5.3891" rx="2.68832" transform="rotate(90 9.87988 157.714)" fill="#0084B9"/>
<rect x="247" y="177.429" width="5.37662" height="5.38909" rx="2.68831" transform="rotate(90 247 177.429)" fill="#0084B9"/>
<rect x="227.24" y="177.429" width="5.37662" height="5.38909" rx="2.68831" transform="rotate(90 227.24 177.429)" fill="#0084B9"/>
<rect x="207.48" y="177.429" width="5.37662" height="5.38909" rx="2.68831" transform="rotate(90 207.48 177.429)" fill="#0084B9"/>
<rect x="187.72" y="177.429" width="5.37662" height="5.38909" rx="2.68831" transform="rotate(90 187.72 177.429)" fill="#0084B9"/>
<rect x="167.96" y="177.429" width="5.37662" height="5.38909" rx="2.68831" transform="rotate(90 167.96 177.429)" fill="#0084B9"/>
<rect x="148.2" y="177.429" width="5.37662" height="5.38909" rx="2.68831" transform="rotate(90 148.2 177.429)" fill="#0084B9"/>
<rect x="128.44" y="177.429" width="5.37662" height="5.38909" rx="2.68831" transform="rotate(90 128.44 177.429)" fill="#0084B9"/>
<rect x="108.68" y="177.429" width="5.37662" height="5.38908" rx="2.68831" transform="rotate(90 108.68 177.429)" fill="#0084B9"/>
<rect x="88.9199" y="177.429" width="5.37662" height="5.38908" rx="2.68831" transform="rotate(90 88.9199 177.429)" fill="#0084B9"/>
<rect x="69.1602" y="177.429" width="5.37662" height="5.3891" rx="2.68831" transform="rotate(90 69.1602 177.429)" fill="#0084B9"/>
<rect x="49.4004" y="177.429" width="5.37662" height="5.38908" rx="2.68831" transform="rotate(90 49.4004 177.429)" fill="#0084B9"/>
<rect x="29.6396" y="177.429" width="5.37662" height="5.38908" rx="2.68831" transform="rotate(90 29.6396 177.429)" fill="#0084B9"/>
<rect x="9.87988" y="177.429" width="5.37662" height="5.3891" rx="2.68831" transform="rotate(90 9.87988 177.429)" fill="#0084B9"/>
<rect x="247" y="197.143" width="5.37663" height="5.38909" rx="2.68832" transform="rotate(90 247 197.143)" fill="#0084B9"/>
<rect x="227.24" y="197.143" width="5.37663" height="5.38909" rx="2.68832" transform="rotate(90 227.24 197.143)" fill="#0084B9"/>
<rect x="207.48" y="197.143" width="5.37663" height="5.38909" rx="2.68832" transform="rotate(90 207.48 197.143)" fill="#0084B9"/>
<rect x="187.72" y="197.143" width="5.37663" height="5.38909" rx="2.68832" transform="rotate(90 187.72 197.143)" fill="#0084B9"/>
<rect x="167.96" y="197.143" width="5.37663" height="5.38909" rx="2.68832" transform="rotate(90 167.96 197.143)" fill="#0084B9"/>
<rect x="148.2" y="197.143" width="5.37663" height="5.38909" rx="2.68832" transform="rotate(90 148.2 197.143)" fill="#0084B9"/>
<rect x="128.44" y="197.143" width="5.37663" height="5.38909" rx="2.68832" transform="rotate(90 128.44 197.143)" fill="#0084B9"/>
<rect x="108.68" y="197.143" width="5.37663" height="5.38908" rx="2.68832" transform="rotate(90 108.68 197.143)" fill="#0084B9"/>
<rect x="88.9199" y="197.143" width="5.37663" height="5.38908" rx="2.68832" transform="rotate(90 88.9199 197.143)" fill="#0084B9"/>
<rect x="69.1602" y="197.143" width="5.37663" height="5.3891" rx="2.68832" transform="rotate(90 69.1602 197.143)" fill="#0084B9"/>
<rect x="49.4004" y="197.143" width="5.37663" height="5.38908" rx="2.68832" transform="rotate(90 49.4004 197.143)" fill="#0084B9"/>
<rect x="29.6396" y="197.143" width="5.37663" height="5.38908" rx="2.68832" transform="rotate(90 29.6396 197.143)" fill="#0084B9"/>
<rect x="9.87988" y="197.143" width="5.37663" height="5.3891" rx="2.68832" transform="rotate(90 9.87988 197.143)" fill="#0084B9"/>
</svg>
